<?xml version="1.0" encoding="utf-8"?>
<!-- Generator: Adobe Illustrator 14.0.0, SVG Export Plug-In  -->
<!DOCTYPE svg PUBLIC "-//W3C//DTD SVG 1.1//EN" "http://www.w3.org/Graphics/SVG/1.1/DTD/svg11.dtd" [
	<!ENTITY ns_flows "http://ns.adobe.com/Flows/1.0/">
]>
<svg version="1.1"
	 xmlns="http://www.w3.org/2000/svg" xmlns:xlink="http://www.w3.org/1999/xlink" xmlns:a="http://ns.adobe.com/AdobeSVGViewerExtensions/3.0/"
	 x="0px" y="0px" width="512px" height="512px" viewBox="-15.181 -25.925 512 512" enable-background="new -15.181 -25.925 512 512"
	 xml:space="preserve">
<defs>
</defs>
<ellipse id="ellipse4_1_" fill="#4E4A4A" cx="248.609" cy="232.092" rx="230.978" ry="224.88"/>
<linearGradient id="path15_2_" gradientUnits="userSpaceOnUse" x1="219.6157" y1="469.9648" x2="317.6136" y2="717.2925" gradientTransform="matrix(1.076 0 0 1.076 -109.0932 -441.2737)">
	<stop  offset="0" style="stop-color:#FFFFFF"/>
	<stop  offset="0.147" style="stop-color:#FFFFFF;stop-opacity:0.8868"/>
	<stop  offset="1" style="stop-color:#FFFFFF;stop-opacity:0.23"/>
</linearGradient>
<path id="path15_1_" fill="url(#path15_2_)" d="M118.954,66.211c0,0-11.297,5.2-9.862,25.824
	c1.434,20.623,8.966,31.652,19.994,45.64c11.029,13.988,22.327,29.051,19.906,40.08s-10.088,79.309,66.307,105.85l-87.826,66.039
	c0,0,4.572,14.794,20.981,33.086l59.09,51.288c0,0-20.804-1.254-35.867-7.531c0,0,14.348,13.987,39.991,13.808l14.167,0.18
	l-68.773-73.077c0,0-7.802-11.745,6.546-22.147c14.347-10.4,78.188-60.793,78.188-60.793s48.15,2.779,71.821-34.342
	c0,0-59.985,50.84-105.177,12.463c-45.19-38.375-48.419-99.706-48.419-99.706s-0.269-11.478-7.531-19.816
	c-7.264-8.339-2.421-43.846-2.421-43.846S141.37,58.769,118.954,66.211z"/>
<linearGradient id="path24_2_" gradientUnits="userSpaceOnUse" x1="398.606" y1="399.042" x2="496.6042" y2="646.3706" gradientTransform="matrix(1.076 0 0 1.076 -109.0932 -441.2737)">
	<stop  offset="0" style="stop-color:#FFFFFF"/>
	<stop  offset="0.147" style="stop-color:#FFFFFF;stop-opacity:0.8868"/>
	<stop  offset="1" style="stop-color:#FFFFFF;stop-opacity:0.23"/>
</linearGradient>
<path id="path24_1_" fill="url(#path24_2_)" d="M327.604,157.581c0,0,69.4,4.842,91.996,17.484
	c22.596,12.643,16.14-2.421,12.912-11.297c-3.229-8.877,14.795-15.871,15.87,0.269c1.076,16.14,2.69,32.28,2.421,36.853
	c0,0-4.034-26.63-7.531-33.894c-3.497-7.263-4.304-2.421-1.076,10.491c3.228,12.912,4.304,18.83,2.689,25.285l-87.961-27.707
	C356.924,175.065,330.383,174.168,327.604,157.581z"/>
<path id="path27_1_" fill="#22252A" d="M175.891,429.266c0,0,9.415,12.104,37.928,8.607l47.344,15.871
	C261.163,453.744,201.984,466.925,175.891,429.266L175.891,429.266z"/>
<path id="path29_1_" fill="#262626" d="M114.83,52.403L89.723,72.489C89.723,72.489,95.103,44.154,114.83,52.403"/>
<path id="path31_1_" fill="#3F454E" d="M209.292,288.671l1.076-3.9c0,0-38.512-13.943-54.113-44.34s-14.257-57.296-12.643-66.979
	c0,0-1.702-6.724-8.338-9.504c-6.636-2.781-8.609,54.157,12.104,83.208c20.713,29.052,59.179,44.923,59.179,44.923L209.292,288.671
	L209.292,288.671z"/>
<path id="path33_1_" fill="#3F454E" d="M194.183,302.569c0,0-52.992,40.887-62.677,55.682c-9.684,14.795-0.716,24.479-0.716,24.479
	s16.318,20.443,30.485,32.817c14.168,12.374,42.859,40.886,80.788,38.734l4.169-3.094l11.433,4.304c0,0-8.742,9.953-37.659,4.438
	c-22.272-4.247-72.897-33.444-98.004-66.8c-25.105-33.355,2.511-45.909,30.128-67.787s38.377-25.106,38.377-25.106L194.183,302.569z
	"/>
<path id="path35_1_" fill="#2F343A" d="M456.856,164.44c0,0-0.941,3.632-16.543,2.735c0,0-49.765-15.243-82.851-17.126
	c-33.087-1.883-34.431-9.056-40.349-18.381c-5.917-9.325-45.191-38.378-89.665-33.715c-44.474,4.664-73.077,49.137-73.077,49.137
	l-6.186-2.42l7.71-16.409c0,0,24.926-41.067,79.443-44.295c54.516-3.228,86.436,19.009,101.5,37.301
	c15.063,18.292,69.222,15.782,103.653,29.052C440.493,150.319,456.9,154.531,456.856,164.44z"/>
<path id="path39_1_" fill="#3F454E" d="M116.846,55.766c0,0-10.222-9.146-18.426,1.883s-0.808,36.179,5.469,48.374
	c6.277,12.195,13.092,23.583,16.724,28.424c0,0-10.626-9.684-20.04-23.671C91.158,96.788,84.97,82.531,89.005,63.701
	s21.431-18.337,27.169-16.318L116.846,55.766L116.846,55.766z"/>
<path id="path41_1_" fill="#7F848A" d="M463.312,207.613c0,0,7.666-0.27,6.231-11.746c-1.434-11.477-7.173-52.678-34.072-95.448
	c0,0,23.67,21.207,38.018,80.744C487.835,240.7,463.312,207.613,463.312,207.613z"/>
<path id="path43_1_" fill="#7E848A" d="M343.923,160.719c0,0-1.837,5.155-2.6,6.903c0,0,17.589,46.024-19.182,95.06l2.503,1.689
	C324.645,264.372,373.961,221.691,343.923,160.719z"/>
<path id="path59_1_" fill="#D7DADE" d="M444.437,111.224c0,0,83.927,111.902,4.293,239.912
	c-43.818,70.434-126.248,103.83-177.536,107.059c-51.289,3.228-103.16-48.823-113.785-59.179
	c-10.625-10.356-16.946-22.729-3.228-34.431s90.831-70.298,90.831-70.298s48.16,3.708,83.937-39.062
	c35.776-42.77,14.975-94.507,14.975-94.507s4.304,4.663,8.966,6.455c4.662,1.795,21.251,4.125,42.367,10.043
	c21.116,5.918,55.547,18.83,68.056,29.321c12.508,10.491,11.903-4.281,10.356-14.436
	C465.778,140.275,444.437,111.224,444.437,111.224L444.437,111.224z"/>
<path id="path68_1_" fill="#444C56" d="M148.184,144.803c0,0,2.489-5.111-2.017-13.046c-4.507-7.936-40.664-64.291-28.469-97.287
	c0,0,61.689-42.322,147.229-33.176s134.497,53.261,156.017,78.008s36.764,70.656,37.839,77.83
	c1.076,7.174-1.614,11.117-11.119,5.917c-9.504-5.2-21.16-8.966-42.859-14.346s-45.728-7.532-54.695-8.07
	c-8.967-0.538-14.884,0.001-20.532-6.635c-5.649-6.635-28.963-41.786-82.762-44.654C193.017,86.477,157.509,124.943,148.184,144.803
	L148.184,144.803z"/>
<path id="path87_1_" fill="#92BAD6" d="M212.272,289.792c0,0-59.381,39.676-82.515,63.55c-9.883,10.198-20.31,14.594,0.941,41.224
	c21.251,26.631,61.869,59.448,97.914,62.945c0,0,6.098,3.677,13.54,3.856c0,0-86.796,7.083-157.093-53.172
	S-20.651,249.117,12.611,158.568C34.464,99.08,71.25,68.006,88.063,54.96c9.083-7.05,17.082-8.114,17.082-8.114
	s-18.92,6.276-12.553,33.445c5.491,23.439,17.394,41.784,23.312,48.24c5.918,6.456,22.237,25.734,22.775,36.852
	s-9.504,44.474,14.525,80.699C177.235,282.306,212.272,289.792,212.272,289.792z"/>
<ellipse id="ellipse108_1_" fill="#8092A1" cx="244.305" cy="195.868" rx="92.894" ry="86.078"/>
<path id="path111_1_" opacity="0.5" fill="#FFFFFF" enable-background="new    " d="M422.625,81.304
	c5.564,9.673,23.302,41.099,27.371,55.565c4.842,17.215,8.07,28.244-1.076,22.864c-9.146-5.38-66.979-19.099-86.481-20.578
	s-28.648-1.479-31.204-5.649c0,0-27.033-46.132-91.323-46.132s-90.92,53.799-90.92,53.799l0.582,0.917
	c11.091-20.437,45.795-55.485,97.242-52.743c53.799,2.869,77.112,38.019,82.762,44.654c5.648,6.635,11.565,6.096,20.532,6.634
	c8.968,0.538,32.996,2.69,54.695,8.07s33.355,9.146,42.859,14.346c9.505,5.2,12.195,1.257,11.119-5.917
	C457.737,150.146,443.253,106.443,422.625,81.304L422.625,81.304z"/>
<path id="path113_1_" opacity="0.5" fill="#FFFFFF" enable-background="new    " d="M456.453,205.73
	c8.428,6.098,8.428,3.586,8.428,3.586c-1.609-1.921-3.313-3.716-5.088-5.409c-14.046-9.577-42.972-20.443-62.398-26.08
	c-12.55-2.124-23.56-3.26-30.38-5.182c0,0-11.521-2.241-20.848-8.697c0,0,0.668,3.345,1.226,8.821
	c3.895,17.824,6.735,52.36-18.441,82.458c-35.776,42.771-83.937,39.062-83.937,39.062s-77.112,58.597-90.831,70.298
	s-7.397,24.074,3.228,34.431c9.392,9.154,51,50.866,95.951,58.212c1.313,0.129,2.547,0.225,3.679,0.285
	c0,0-45.371-10.491-71.194-35.508c-25.824-25.017-44.653-36.584-28.782-49.495c15.87-12.911,93.072-76.126,93.072-76.126
	s47.755,2.351,83.837-44.92c30.082-39.41,15.018-83.39,15.018-83.39s18.921,9.953,32.325,10.222
	C407.852,178.827,448.024,199.633,456.453,205.73L456.453,205.73z"/>
<path id="path115_1_" fill="#FFFFFF" d="M470.964,177.421c-12.563-43.714-17.135-44.789-23.994-62.274
	C453.696,126.579,464.792,145.879,470.964,177.421z"/>
<path id="path117_1_" opacity="0.8" fill="#FFFFFF" enable-background="new    " d="M113.753,126.243
	c-0.109-0.221-0.202-0.435-0.307-0.655c-6.317-8.148-16.043-24.769-20.854-45.298c-5.411-23.09,7.437-31.086,11.418-32.968
	c-17.482,5.532-16.868,17.906-10.702,42.741C99.585,115.348,113.753,126.243,113.753,126.243z"/>
<path id="path123_1_" opacity="0.5" fill="#FFFFFF" enable-background="new    " d="M130.7,394.565
	c-3.804-4.768-6.576-8.811-8.537-12.313c-1.306-1.368-2.519-2.043-3.164-0.869c-1.479,2.69,3.094,7.264,3.094,7.264
	c46.267,61.33,102.756,70.477,102.756,70.477c-9.532-2.583-18.674-6.332-27.281-10.772
	C171.201,435.994,145.958,413.687,130.7,394.565z"/>
<path id="path125_1_" opacity="0.6" fill="#FFFFFF" enable-background="new    " d="M252.824,110.506
	c-3.081-0.406-6.082-0.628-9.009-0.704c-9.135,0.044-17.955,1.314-26.284,3.635c-32.768,10.212-50.517,38.225-50.517,38.225
	s30.213-46.989,94.687-38.197c61.15,8.339,72.09,70.208,72.09,70.208S329.169,120.563,252.824,110.506z"/>
<path id="path127_1_" opacity="0.6" fill="#FFFFFF" enable-background="new    " d="M137.424,113.465
	c-6.993-13.988-24.567-49.405-20.174-75.05c0,0-0.626,1.097-1.401,3.175c-5,30.3,20.558,73.731,28.485,87.058
	C142.621,124.486,140.314,119.246,137.424,113.465z"/>
<path id="path143_1_" opacity="0.52" fill="#40464F" enable-background="new    " d="M295.329,123.949
	c-83.84-40.161-127.709,26.908-127.709,26.908c7.532-7.935,33.558-18.83,33.558-18.83c33.625-22.058,63.08-6.187,65.77-4.438
	c2.69,1.749,11.971,2.959,17.754,0.269c4.326-2.013,11.062-1.842,14.181-1.628C297.716,125.444,296.533,124.682,295.329,123.949
	L295.329,123.949z"/>
<path id="path145_1_" opacity="0.4" fill="#FFFFFF" enable-background="new    " d="M202.387,131.219
	c0,0,28.738-16.409,59.224-6.276C261.611,124.943,233.367,112.031,202.387,131.219L202.387,131.219z"/>
<path id="path152_1_" opacity="0.52" fill="#9CADBB" enable-background="new    " d="M252.241,128.26
	c0,0-26.228,3.497-39.543,15.871c-13.314,12.374-12.508,2.017-6.59-3.632C212.026,134.851,227.224,122.88,252.241,128.26z"/>
<path id="path159_1_" opacity="0.52" fill="#94A8B9" enable-background="new    " d="M210.591,134.536
	c0,0-23.313,17.934-22.954,58.821s-10.94,9.146-11.119,3.228C176.339,190.667,177.416,143.682,210.591,134.536L210.591,134.536z"/>
<path id="path170_1_" opacity="0.29" fill="#3F454E" enable-background="new    " d="M164.324,172.644
	c0,0-6.635,38.108,10.761,48.15c0,0,23.402,54.337,86.347,28.783c0,0-9.057,10.49-11.028,18.022
	C250.403,267.6,146.033,286.069,164.324,172.644L164.324,172.644z"/>
<path id="path181_1_" opacity="0.38" fill="#505863" enable-background="new    " d="M261.431,249.577
	c-62.944,25.555-86.347-28.783-86.347-28.783c-1.213-0.599-2.314-1.308-3.32-2.11c14.488,52.102,69.767,42.172,83.746,38.756
	C258.433,253.054,261.431,249.577,261.431,249.577z"/>
<path id="path183_1_" opacity="0.4" fill="#FFFFFF" enable-background="new    " d="M175.084,220.794
	c0,0-14.347-10.491-11.028-44.205C164.056,176.59,157.69,208.958,175.084,220.794z"/>
<path id="path194_1_" opacity="0.38" fill="#383E45" enable-background="new    " d="M272.999,263.833
	c0,0,5.38-21.788,26.898-38.466c21.521-16.678,19.1-54.606,0.538-77.202c0,0,29.052,16.678,31.204,62.945
	C331.639,211.11,313.885,255.495,272.999,263.833z"/>
<path id="path196_1_" opacity="0.14" fill="#FFFFFF" enable-background="new    " d="M310.64,156.835
	c-4.891-5.235-8.955-7.902-9.954-8.518c0.122,0.214,0.253,0.428,0.373,0.646c17.979,22.68,20.109,59.919-1.16,76.405
	c-5.016,3.887-9.145,8.049-12.542,12.151c-1.392,1.884-2.253,2.913-2.253,2.913s32.279-5.111,35.507-43.04
	C322.302,177.497,316.52,164.605,310.64,156.835L310.64,156.835z"/>
<path id="path198_1_" opacity="0.4" fill="#FFFFFF" enable-background="new    " d="M300.794,148.704
	c0,0,32.817,43.577-0.448,76.574C300.346,225.278,331.101,197.481,300.794,148.704z"/>
<linearGradient id="path208_2_" gradientUnits="userSpaceOnUse" x1="113.9692" y1="625.6787" x2="205.1069" y2="625.6787" gradientTransform="matrix(1.076 0 0 1.076 -109.0932 -441.2737)">
	<stop  offset="0" style="stop-color:#FFFFFF"/>
	<stop  offset="0.7697" style="stop-color:#FFFFFF;stop-opacity:0"/>
	<stop  offset="1" style="stop-color:#FFFFFF;stop-opacity:0"/>
</linearGradient>
<path id="path208_1_" opacity="0.5" fill="url(#path208_2_)" enable-background="new    " d="M53.499,105.126
	C62.247,92,77.708,75.94,84.97,68.005c0,0-73.974,75.319-62.316,178.076c10.979,96.786,88.948,144.897,88.948,144.897L98.42,395.91
	C98.42,395.91-57.682,271.931,53.499,105.126z"/>
<path id="path212_1_" opacity="0.5" fill="#FFFFFF" enable-background="new    " d="M87.458,77.823c0,0-7.958,3.543-14.683,12.778
	c-6.726,9.235-7.982,16.049-7.892,23.043c0.091,6.994,0.628,13.45,6.904,15.602s7.532-5.291,14.526-7.801
	c6.993-2.51,10.669-0.626,11.387,1.167c0.718,1.792,3.229,6.813,13.54,5.647C111.243,128.26,87.526,108.444,87.458,77.823z"/>
<path id="path214_1_" opacity="0.5" fill="#FFFFFF" enable-background="new    " d="M129.713,88.539c0,0,9.057-32.37-12.329-31.563
	c0,0,3.094,15.063,6.726,22.73C127.741,87.373,128.054,88.226,129.713,88.539z"/>
<path id="path216_1_" opacity="0.5" fill="#FFFFFF" enable-background="new    " d="M163.518,37.698c0,0-3.229-6.455-16.229,0.628
	c-13.001,7.083-17.127,11.387-15.064,18.381c2.063,6.994,7.623,6.186,15.692-0.987C155.987,48.548,167.733,44.512,163.518,37.698z"
	/>
<linearGradient id="path223_2_" gradientUnits="userSpaceOnUse" x1="247.0181" y1="373.0596" x2="352.0161" y2="309.0608" gradientTransform="matrix(1.076 0 0 -1.076 -6.31 460.6263)">
	<stop  offset="0.0061" style="stop-color:#FFFFFF"/>
	<stop  offset="1" style="stop-color:#B1DEF4;stop-opacity:0.07"/>
</linearGradient>
<path id="path223_1_" opacity="0.3" fill="url(#path223_2_)" enable-background="new    " d="M395.525,68.678
	c0,0-121.451-123.334-279.082-18.964c0,0,0.808,3.497,3.9,1.614c3.094-1.883,52.589-37.121,121.989-35.776
	c69.4,1.345,113.785,34.7,122.931,43.308S398.439,90.869,395.525,68.678z"/>
<path id="path227_1_" opacity="0.5" fill="#FFFFFF" enable-background="new    " d="M25.523,324.626c0,0-0.128-0.13-0.36-0.405
	C25.398,324.522,25.523,324.626,25.523,324.626z"/>
<path id="path229_1_" opacity="0.5" fill="#FFFFFF" enable-background="new    " d="M84.881,60.473
	c3.813-4.288,6.752-7.299,8.68-9.19c-1.744,0.998-3.595,2.198-5.497,3.676c-8.337,6.47-21.586,17.377-35.486,33.977
	c-6.624,8.935-13.784,19.812-21.315,33.048c-20.575,36.157-29.125,68.19-30.936,96.113c-0.451,8.12-0.416,16.224,0.067,24.281
	c0.886,12.51,3.01,24.029,5.761,34.545c8.892,33.975,17.214,45.173,19.008,47.296c-1.729-2.202-9.493-15.022-18.649-75.631
	c-10.401-68.863,34.612-136.111,41.965-147.947C55.83,88.805,77.708,68.543,84.881,60.473L84.881,60.473z"/>
<radialGradient id="path244_2_" cx="287.77" cy="587.4736" r="257.5816" gradientTransform="matrix(1.076 0 0 1.076 -109.0932 -441.2737)" gradientUnits="userSpaceOnUse">
	<stop  offset="0" style="stop-color:#FFFFFF"/>
	<stop  offset="0.739" style="stop-color:#FFFFFF;stop-opacity:0.3904"/>
	<stop  offset="0.8606" style="stop-color:#FFFFFF;stop-opacity:0.29"/>
	<stop  offset="0.8803" style="stop-color:#FFFFFF;stop-opacity:0.3338"/>
	<stop  offset="1" style="stop-color:#FFFFFF;stop-opacity:0.6"/>
</radialGradient>
<path id="path244_1_" fill="url(#path244_2_)" d="M242.154,461.366c-7.442-0.18-13.54-3.856-13.54-3.856
	c-24.76-2.401-51.677-18.64-72.994-37.203c-86.129-27.662-133.862-96.218-133.862-96.218c0.124,0.61,0.262,1.208,0.39,1.816
	c14.777,31.25,36.353,59.522,62.914,82.289C155.358,468.449,242.154,461.366,242.154,461.366z"/>
<radialGradient id="path257_2_" cx="287.771" cy="587.4736" r="257.5813" gradientTransform="matrix(1.076 0 0 1.076 -109.0932 -441.2737)" gradientUnits="userSpaceOnUse">
	<stop  offset="0" style="stop-color:#FFFFFF"/>
	<stop  offset="0.739" style="stop-color:#FFFFFF;stop-opacity:0.3904"/>
	<stop  offset="0.8606" style="stop-color:#FFFFFF;stop-opacity:0.29"/>
	<stop  offset="0.8803" style="stop-color:#FFFFFF;stop-opacity:0.3338"/>
	<stop  offset="1" style="stop-color:#FFFFFF;stop-opacity:0.6"/>
</radialGradient>
<path id="path257_1_" fill="url(#path257_2_)" d="M482.225,254.074c-16.052,39.085-82.281,155.015-217.835,174.921
	c-25.937,3.81-50.016,3.34-72.141-0.052c21.692,15.727,50.407,31.046,78.944,29.25c51.288-3.229,133.718-36.626,177.536-107.06
	C469.944,317.034,479.547,284.078,482.225,254.074z"/>
<path id="path259_1_" opacity="0.6" fill="#FFFFFF" enable-background="new    " d="M153.207,246.079
	c-24.03-36.224-13.988-69.58-14.526-80.698c-0.236-4.877-3.51-11.324-7.609-17.572c-6.522,14.509-10.146,30.516-10.146,47.341
	c0,47.97,29.393,89.308,71.743,108.169c11.445-8.076,19.604-13.527,19.604-13.527S177.236,282.305,153.207,246.079L153.207,246.079z
	"/>
<path id="path261_1_" opacity="0.6" fill="#FFFFFF" enable-background="new    " d="M354.174,140.917
	c-20.442-38.496-61.969-64.843-109.868-64.843c-41.798,0-78.735,20.063-101.053,50.751c1.345,2.273,2.366,3.966,2.915,4.931
	c4.506,7.936,2.018,13.046,2.018,13.046c9.324-19.861,44.832-58.327,98.632-55.458c53.798,2.869,77.111,38.019,82.761,44.654
	c5.648,6.636,11.565,6.097,20.532,6.635C351.238,140.702,352.604,140.795,354.174,140.917z"/>
<path id="path263_1_" opacity="0.6" fill="#FFFFFF" enable-background="new    " d="M244.305,314.226
	c68.141,0,123.379-53.312,123.379-119.075c0-8.621-0.958-17.022-2.76-25.123c-5.819-1.211-10.029-2.084-12.035-2.854
	c-4.662-1.792-8.966-6.455-8.966-6.455s20.802,51.736-14.975,94.506c-35.776,42.77-83.937,39.062-83.937,39.062
	s-10.024,7.616-23.486,17.907C228.909,313.523,236.522,314.226,244.305,314.226L244.305,314.226z"/>
<path id="path266_1_" opacity="0.21" enable-background="new    " d="M480.393,254.149c0,0-3.228-28.379-24.479-30.127
	c0,0,7.801,99.527-102.576,163.908c0,0,21.162,24.746,11.657,39.452c0,0,4.841-17.574-15.424-40.17
	c0,0,103.384-46.178,105.267-165.343C454.838,221.87,477.972,222.587,480.393,254.149z"/>
<path id="path268_1_" opacity="0.82" fill="#D9DDE2" enable-background="new    " d="M366.071,427.383
	c0,0,8.249-12.014-12.732-39.452c0,0,101.858-51.11,102.576-163.909c0,0,18.83-1.077,24.479,30.127c0,0-8.878-28.153-23.044-27.436
	c0,0,8.25,96.659-100.962,160.231C356.387,386.944,378.85,416.085,366.071,427.383z"/>
<path id="path270_1_" opacity="0.21" enable-background="new    " d="M336.078,442.715c0,0,3.812-23.223-13.046-42.053
	c0,0-30.486,11.836-51.826,13.988c0,0,4.841,24.929,28.334,39.633c0,0-17.574-10.4-25.106-37.121c0,0,31.024-4.843,48.239-14.168
	C322.672,402.994,334.777,410.346,336.078,442.715L336.078,442.715z"/>
<path id="path272_1_" opacity="0.82" fill="#D9DDE2" enable-background="new    " d="M299.54,454.283
	c0,0-19.906-18.473-22.596-35.867c0,0,35.283-6.701,46.514-14.827c0,0,10.961,18.95,12.62,39.126c0,0,0.045-28.064-13.405-39.721
	c0,0-26.182,11.657-48.239,14.168C274.433,417.162,281.964,444.062,299.54,454.283L299.54,454.283z"/>
</svg>
